<?xml version="1.0" encoding="UTF-8"?>
<svg version="1.1" xmlns="http://www.w3.org/2000/svg" width="32" height="32">
<path d="M0 0 C7.42857143 -0.28571429 7.42857143 -0.28571429 11 2 C11.33 1.67 11.66 1.34 12 1 C13.76628086 0.84818743 15.53993085 0.77817328 17.3125 0.75 C18.27800781 0.72421875 19.24351563 0.6984375 20.23828125 0.671875 C23.61601828 1.07319029 24.85167475 1.32215796 27 4 C27.52093118 7.15699215 27.41970294 10.24761693 27.3125 13.4375 C27.29799805 14.72624023 27.29799805 14.72624023 27.28320312 16.04101562 C27.21496321 19.86541764 27.04134805 23.30261175 26 27 C15.49283022 27.76651631 5.50163618 28.09900844 -5 27 C-5 19.08 -5 11.16 -5 3 C-3.35 2.67 -1.7 2.34 0 2 C0 1.34 0 0.68 0 0 Z " fill="#1D0F6D" transform="translate(5,2)"/>
<path d="M0 0 C6.625 -0.25 6.625 -0.25 10 2 C10.34057617 4.24658203 10.34057617 4.24658203 10.29296875 7.0078125 C10.28330078 7.99394531 10.27363281 8.98007813 10.26367188 9.99609375 C10.23853516 11.02863281 10.21339844 12.06117187 10.1875 13.125 C10.17396484 14.16527344 10.16042969 15.20554687 10.14648438 16.27734375 C10.11105228 18.85207627 10.06165221 21.4257833 10 24 C9.16855469 24.06058594 8.33710938 24.12117188 7.48046875 24.18359375 C5.85044922 24.30927734 5.85044922 24.30927734 4.1875 24.4375 C3.10855469 24.51871094 2.02960937 24.59992187 0.91796875 24.68359375 C-2.05989905 24.90212461 -2.05989905 24.90212461 -5 26 C-5 18.41 -5 10.82 -5 3 C-3.35 2.67 -1.7 2.34 0 2 C0 1.34 0 0.68 0 0 Z " fill="#F6D9E1" transform="translate(5,2)"/>
<path d="M0 0 C3.3 0.33 6.6 0.66 10 1 C10 7.93 10 14.86 10 22 C6.37 22.33 2.74 22.66 -1 23 C-1.02682987 19.35411831 -1.04675569 15.70843154 -1.0625 12.0625 C-1.07087891 11.02158203 -1.07925781 9.98066406 -1.08789062 8.90820312 C-1.09272461 7.42416992 -1.09272461 7.42416992 -1.09765625 5.91015625 C-1.10289307 4.99371338 -1.10812988 4.07727051 -1.11352539 3.13305664 C-1 1 -1 1 0 0 Z " fill="#F6D9E1" transform="translate(17,3)"/>
<path d="M0 0 C2.31 0 4.62 0 7 0 C7 0.33 7 0.66 7 1 C5.02 1 3.04 1 1 1 C1 7.93 1 14.86 1 22 C3.64 22.33 6.28 22.66 9 23 C9 23.33 9 23.66 9 24 C8.24074219 24.06058594 7.48148438 24.12117188 6.69921875 24.18359375 C5.70535156 24.26738281 4.71148437 24.35117187 3.6875 24.4375 C2.70136719 24.51871094 1.71523437 24.59992187 0.69921875 24.68359375 C-2.09375599 24.91812559 -2.09375599 24.91812559 -5 26 C-5 18.41 -5 10.82 -5 3 C-3.35 2.67 -1.7 2.34 0 2 C0 1.34 0 0.68 0 0 Z " fill="#C67BC4" transform="translate(5,2)"/>
<path d="M0 0 C1.41569064 -0.08167446 2.83276805 -0.13949698 4.25 -0.1875 C5.43335938 -0.23970703 5.43335938 -0.23970703 6.640625 -0.29296875 C9.705419 0.08759342 10.93091312 0.69163096 13 3 C13.42578125 6.21484375 13.42578125 6.21484375 13.3125 9.9375 C13.28800781 11.16339844 13.26351562 12.38929687 13.23828125 13.65234375 C13.05140229 16.27783993 12.7702787 18.50129105 12 21 C11.01 21 10.02 21 9 21 C9 21.66 9 22.32 9 23 C5.04 23.33 1.08 23.66 -3 24 C-2.67 23.34 -2.34 22.68 -2 22 C1.3 22 4.6 22 8 22 C8 15.07 8 8.14 8 1 C5.36 1 2.72 1 0 1 C0 0.67 0 0.34 0 0 Z " fill="#705394" transform="translate(19,3)"/>
<path d="M0 0 C0.66 0.33 1.32 0.66 2 1 C1.67 1.99 1.34 2.98 1 4 C3.31 4.33 5.62 4.66 8 5 C8 7.97 8 10.94 8 14 C5.69 14.33 3.38 14.66 1 15 C1 15.66 1 16.32 1 17 C3.31 17.33 5.62 17.66 8 18 C8 18.33 8 18.66 8 19 C6.88625 19.103125 5.7725 19.20625 4.625 19.3125 C3.42875 19.539375 2.2325 19.76625 1 20 C0.34 20.99 -0.32 21.98 -1 23 C-1.02887512 19.35418313 -1.04675585 15.70839537 -1.0625 12.0625 C-1.07087891 11.02158203 -1.07925781 9.98066406 -1.08789062 8.90820312 C-1.09272461 7.42416992 -1.09272461 7.42416992 -1.09765625 5.91015625 C-1.10289307 4.99371338 -1.10812988 4.07727051 -1.11352539 3.13305664 C-1 1 -1 1 0 0 Z " fill="#FCB7E6" transform="translate(17,3)"/>
<path d="M0 0 C0 6.6 0 13.2 0 20 C-0.33 20 -0.66 20 -1 20 C-1.33 18.35 -1.66 16.7 -2 15 C-3.98 14.34 -5.96 13.68 -8 13 C-6 12 -4 11 -2 10 C-2 9.34 -2 8.68 -2 8 C-3.98 7.34 -5.96 6.68 -8 6 C-8 5.01 -8 4.02 -8 3 C-1.125 0 -1.125 0 0 0 Z " fill="#FDBDE6" transform="translate(15,6)"/>
<path d="M0 0 C1.08174162 3.36541838 0.92538169 4.29847322 0 8 C-3.96 8 -7.92 8 -12 8 C-11.34 7.67 -10.68 7.34 -10 7 C-10 6.34 -10 5.68 -10 5 C-7.69 5 -5.38 5 -3 5 C-3 4.34 -3 3.68 -3 3 C-2.01 3 -1.02 3 0 3 C0 2.01 0 1.02 0 0 Z " fill="#1C0564" transform="translate(31,21)"/>
<path d="M0 0 C2.64 0 5.28 0 8 0 C8 1.32 8 2.64 8 4 C7 5 7 5 3.9375 5.0625 C2.968125 5.041875 1.99875 5.02125 1 5 C0.67 3.35 0.34 1.7 0 0 Z " fill="#F5C5E0" transform="translate(6,3)"/>
</svg>
